#N canvas 178 413 499 276 10;
#N canvas 836 649 450 300 attack 0;
#X obj 189 195 *~;
#X obj 248 183 vline~;
#X obj 160 94 noise~;
#X obj 247 45 bng 15 250 50 0 empty empty empty 17 7 0 10 -262144 -1
-1;
#X obj 185 45 inlet;
#X obj 167 244 outlet~;
#X obj 166 125 *~ 0.4;
#X floatatom 93 171 5 0 0 0 - - -;
#X floatatom 123 151 5 0 0 0 - - -;
#X obj 185 162 bp~ 500;
#X obj 65 104 loadbang;
#X obj 174 218 *~ 0.5;
#X msg 248 110 1 10 \, 0 20 50;
#X connect 0 0 11 0;
#X connect 1 0 0 1;
#X connect 2 0 6 0;
#X connect 3 0 12 0;
#X connect 4 0 12 0;
#X connect 6 0 9 0;
#X connect 7 0 9 1;
#X connect 8 0 9 2;
#X connect 9 0 0 0;
#X connect 10 0 7 0;
#X connect 10 0 8 0;
#X connect 11 0 5 0;
#X connect 12 0 1 0;
#X restore 297 172 pd attack;
#X text 296 5 http://tkrkapps.blogspot.jp;
#X obj 268 240 dac~;
#X obj 386 68 bng 15 250 50 0 empty empty empty 17 7 0 10 -262144 -1
-1;
#X obj 221 40 metro 500;
#X obj 168 93 osc~ 440;
#X obj 246 145 *~ 0.3;
#X obj 170 132 *~ 1;
#X msg 232 104 1;
#X msg 273 104 0;
#X obj 262 83 delay 200;
#X text 327 67 beat it>>;
#X obj 210 191 hip~ 300;
#X obj 387 39 r attack;
#X obj 52 119 s metrorecv;
#X obj 127 8 loadbang;
#X connect 0 0 2 0;
#X connect 0 0 2 1;
#X connect 3 0 0 0;
#X connect 4 0 8 0;
#X connect 4 0 10 0;
#X connect 4 0 14 0;
#X connect 5 0 7 0;
#X connect 6 0 12 0;
#X connect 7 0 6 0;
#X connect 8 0 7 1;
#X connect 9 0 7 1;
#X connect 10 0 9 0;
#X connect 12 0 2 0;
#X connect 12 0 2 1;
#X connect 13 0 3 0;
#X connect 15 0 4 0;
